#!OML:ASF H:\Terrain\Patient Classification 1\Walking\liu\liu.ASF
:FULLY-SPECIFIED
:DEGREES
437
root 21.132601 34.445202 51.548199 13.730280 -4.320800 4.847900
lowerback -13.555560 4.106640 -7.086220
upperback -5.499740 5.902460 0.481780
thorax 1.529714 2.999080 4.889280
lowerneck -36.162601 -11.200480 -28.630199
upperneck 44.668598 -13.977000 25.551399
head 22.423800 -5.869260 12.122740
rclavicle -0.000000 -0.000000
rhumerus -88.662399 19.101139 -180.009995
rradius 58.932598
rwrist -24.646000
rhand -55.139198 -53.641998
rfingers 14.250040
rthumb -1.940458 -113.597198
lclavicle -0.000000 -0.000000
lhumerus -81.641998 -6.563500 177.590195
lradius 38.145802
lwrist -10.994500
lhand -23.865400 -49.414200
lfingers 14.250040
lthumb 28.243601 9.586000
rfemur -3.630720 -3.809980 30.996000
rtibia 110.070602
rfoot 27.583000 -4.407520
rtoes -21.637800
lfemur -61.491798 8.754140 -56.750801
ltibia 62.893002
lfoot -15.497500 12.712980
ltoes 8.920260
438
root 21.106600 34.479198 51.604801 15.228120 -3.754320 1.223270
lowerback -12.967940 4.000000 -3.865000
upperback -6.123360 5.530280 1.715902
thorax 0.684102 2.816960 4.291760
lowerneck -36.442600 -11.215460 -29.272600
upperneck 44.368599 -13.835440 25.924200
head 22.386200 -5.807760 12.389520
rclavicle -0.000000 0.000000
rhumerus -88.456398 19.058060 -179.466003
rradius 59.178200
rwrist -23.743999
rhand -60.651199 -47.099602
rfingers 14.250040
rthumb -7.263820 -106.997200
lclavicle -0.000000 0.000000
lhumerus -79.386803 -7.968160 178.516403
lradius 37.991798
lwrist -10.313740
lhand -23.289801 -48.150200
lfingers 14.250040
lthumb 28.798401 10.810840
rfemur -9.683640 -2.870860 36.484001
rtibia 114.175400
rfoot 24.484800 -9.514740
rtoes -18.352980
lfemur -63.123600 8.535980 -52.493999
ltibia 62.184399
lfoot -14.464740 12.647240
ltoes 3.736160
439
root 21.086599 34.508598 51.694000 15.860960 -3.579780 -1.263870
lowerback -9.723880 3.554720 -1.958098
upperback -8.918200 4.830200 2.595700
thorax -3.921680 2.512920 3.907940
lowerneck -33.439400 -10.351060 -29.139400
upperneck 45.687401 -13.154280 25.783199
head 22.156000 -5.612320 12.488440
rclavicle 0.000000 0.000000
rhumerus -93.089996 20.038799 -180.960602
rradius 60.110199
rwrist -24.077200
rhand -72.573799 -32.736599
rfingers 14.250040
rthumb -18.773239 -92.278603
lclavicle 0.000000 0.000000
lhumerus -81.714401 -8.400140 178.768204
lradius 38.094200
lwrist -10.121140
lhand -26.761600 -50.417400
lfingers 14.250040
lthumb 25.452200 8.767000
rfemur -14.860240 -1.994324 40.202599
rtibia 118.280197
rfoot 20.935801 -13.011460
rtoes -19.427660
lfemur -63.942001 8.549960 -49.524200
ltibia 62.221802
lfoot -14.225700 12.782460
ltoes 0.656398
440
root 21.147800 34.572201 52.024200 14.981740 -3.142400 1.450720
lowerback -12.004240 2.812160 -4.354080
upperback -5.969880 3.957240 2.027820
thorax 0.358584 2.039740 4.762120
lowerneck -38.301998 -10.995380 -28.362000
upperneck 46.069199 -13.477340 25.123400
head 23.261600 -5.610860 12.046980
rclavicle 0.000000 0.000000
rhumerus -89.219002 22.004400 -181.141602
rradius 60.691399
rwrist -26.109200
rhand -69.686996 -43.871601
rfingers 14.250040
rthumb -15.987500 -103.529198
lclavicle 0.000000 0.000000
lhumerus -75.285004 -8.957320 178.840607
lradius 37.606201
lwrist -9.914200
lhand -26.556400 -49.571602
lfingers 14.250040
lthumb 25.650000 9.600420
rfemur -16.017719 -3.576160 36.727798
rtibia 121.083397
rfoot 17.560221 -13.039480
rtoes -20.069401
lfemur -60.838402 8.412020 -52.818001
ltibia 61.196999
lfoot -15.289480 12.356400
ltoes -2.313760
441
root 21.165001 34.615002 52.174801 15.791500 -2.463320 -0.113379
lowerback -10.529640 2.444460 -2.734640
upperback -7.723460 3.373960 2.524820
thorax -2.199260 1.775598 4.266440
lowerneck -35.879398 -9.647160 -26.588400
upperneck 46.476601 -11.995360 23.458401
head 22.566200 -5.050360 11.349260
rclavicle -0.000000 0.000000
rhumerus -92.221397 22.695801 -181.958801
rradius 61.675598
rwrist -26.923800
rhand -66.504402 -49.302601
rfingers 14.250040
rthumb -12.915400 -109.065598
lclavicle -0.000000 0.000000
lhumerus -76.156998 -9.394860 178.813202
lradius 38.383801
lwrist -10.840120
lhand -23.868601 -47.332001
lfingers 14.250040
lthumb 28.240601 11.668340
rfemur -20.183399 -3.859580 39.101398
rtibia 123.309601
rfoot 15.785040 -15.769900
rtoes -15.961180
lfemur -60.522202 8.421500 -51.188999
ltibia 59.416000
lfoot -14.470200 11.794640
ltoes -4.465060
442
root 21.319599 34.733601 52.772800 13.745240 -2.170380 4.620760
lowerback -12.296840 1.594098 -6.199260
upperback -7.127440 2.433200 1.215706
thorax -0.610770 1.321552 4.867280
lowerneck -33.771999 -9.052600 -26.916599
upperneck 46.005001 -11.559340 24.457800
head 21.949200 -4.827780 11.843880
rclavicle 0.000000 0.000000
rhumerus -94.279404 23.125601 -182.156799
rradius 62.151600
rwrist -26.110800
rhand -64.313202 -51.398800
rfingers 14.250040
rthumb -10.799780 -111.221199
lclavicle 0.000000 0.000000
lhumerus -76.408600 -9.543600 178.813202
lradius 39.080002
lwrist -11.178580
lhand -22.662600 -46.643200
lfingers 14.250040
lthumb 29.402599 12.274400
rfemur -17.054979 -6.523300 31.792999
rtibia 123.565002
rfoot 12.529240 -13.518840
rtoes -14.915840
lfemur -53.485199 9.058180 -57.227402
ltibia 56.641399
lfoot -16.860121 10.545580
ltoes -3.950000
443
root 21.382200 34.784599 53.111401 12.532580 -1.986910 6.836260
lowerback -12.600480 1.193620 -8.025640
upperback -5.698340 2.036380 0.739290
thorax 1.028960 1.087706 5.400000
lowerneck -35.702599 -9.086240 -26.716000
upperneck 46.287399 -11.283600 23.903200
head 22.368799 -4.691660 11.648980
rclavicle -0.000000 -0.000000
rhumerus -92.622803 22.829201 -181.159195
rradius 62.574402
rwrist -24.393600
rhand -63.514400 -55.923000
rfingers 14.250040
rthumb -10.028620 -115.764397
lclavicle -0.000000 -0.000000
lhumerus -72.914398 -11.842760 179.783600
lradius 39.360001
lwrist -9.515880
lhand -22.907600 -46.418400
lfingers 14.250040
lthumb 29.166599 12.516140
rfemur -17.348820 -7.324400 28.770000
rtibia 124.500397
rfoot 9.995540 -12.788940
rtoes -19.231199
lfemur -49.613201 9.224200 -59.790001
ltibia 54.787998
lfoot -17.738859 10.039420
ltoes 1.275616
444
root 21.408199 34.858799 53.402000 12.080840 -1.511662 6.205400
lowerback -12.882240 1.095342 -7.177880
upperback -4.673600 1.882246 1.002742
thorax 2.265980 0.966354 5.199760
lowerneck -38.639000 -9.970800 -27.556601
upperneck 47.132999 -12.090680 24.347200
head 23.444799 -5.002680 11.880240
rclavicle -0.000000 0.000000
rhumerus -90.879601 22.268000 -180.275604
rradius 62.748199
rwrist -24.170601
rhand -64.864197 -57.273998
rfingers 14.250040
rthumb -11.331940 -117.082603
lclavicle -0.000000 0.000000
lhumerus -69.294601 -14.027640 180.451401
lradius 39.192600
lwrist -9.467380
lhand -23.249800 -46.417000
lfingers 14.250040
lthumb 28.837000 12.541360
rfemur -18.940861 -7.150940 29.792200
rtibia 124.935997
rfoot 7.393380 -13.532140
rtoes -24.338400
lfemur -47.421398 9.158820 -59.005199
ltibia 53.420200
lfoot -18.161880 9.712620
ltoes 5.157560
445
root 21.421400 34.853001 53.626598 12.000540 -0.916496 4.327100
lowerback -12.068680 0.763386 -5.211940
upperback -6.728400 1.272748 1.644712
thorax -0.241612 0.719830 4.689900
lowerneck -32.142399 -8.718020 -27.363800
upperneck 46.632000 -10.984280 23.576401
head 21.758200 -4.759260 11.695420
rclavicle -0.000000 0.000000
rhumerus -95.262398 21.678200 -180.473999
rradius 63.513199
rwrist -23.818800
rhand -62.569401 -55.499199
rfingers 14.250040
rthumb -9.116080 -115.361198
lclavicle -0.000000 0.000000
lhumerus -71.708603 -14.244180 180.633606
lradius 39.389000
lwrist -11.279360
lhand -22.732401 -46.905602
lfingers 14.250040
lthumb 29.335400 12.016780
rfemur -21.448400 -6.520420 32.445400
rtibia 126.119202
rfoot 3.612020 -14.725160
rtoes -24.502600
lfemur -46.140999 9.591400 -57.125401
ltibia 53.175400
lfoot -18.897280 9.560700
ltoes 0.803160
